HIERARCHY
ROOT Hips
{
	OFFSET 0.000000 0.000000 0.000000
	CHANNELS 6 Xposition Yposition Zposition Zrotation Yrotation Xrotation 
	JOINT LHipJoint
	{
		OFFSET 0.000000 0.000000 0.000000
		CHANNELS 3 Zrotation Yrotation Xrotation
		JOINT LeftUpLeg
		{
			OFFSET 1.363060 -1.794630 0.839290
			CHANNELS 3 Zrotation Yrotation Xrotation
			JOINT LeftLeg
			{
				OFFSET 2.448110 -6.726130 0.000000
				CHANNELS 3 Zrotation Yrotation Xrotation
				JOINT LeftFoot
				{
					OFFSET 2.562200 -7.039590 0.000000
					CHANNELS 3 Zrotation Yrotation Xrotation
					JOINT LeftToeBase
					{
						OFFSET 0.157640 -0.433110 2.322550
						CHANNELS 3 Zrotation Yrotation Xrotation
						End Site
						{
							OFFSET 0.000000 0.000000 0.000000
						}
					}
				}
			}
		}
	}
	JOINT RHipJoint
	{
		OFFSET 0.000000 0.000000 0.000000
		CHANNELS 3 Zrotation Yrotation Xrotation
		JOINT RightUpLeg
		{
			OFFSET -1.305520 -1.794630 0.839290
			CHANNELS 3 Zrotation Yrotation Xrotation
			JOINT RightLeg
			{
				OFFSET -2.542530 -6.985550 0.000000
				CHANNELS 3 Zrotation Yrotation Xrotation
				JOINT RightFoot
				{
					OFFSET -2.568260 -7.056230 0.000000
					CHANNELS 3 Zrotation Yrotation Xrotation
					JOINT RightToeBase
					{
						OFFSET -0.164730 -0.452590 2.363150
						CHANNELS 3 Zrotation Yrotation Xrotation
						End Site
						{
							OFFSET 0.000000 0.000000 0.000000
						}
					}
				}
			}
		}
	}
	JOINT LowerBack
	{
		OFFSET 0.000000 0.000000 0.000000
		CHANNELS 3 Zrotation Yrotation Xrotation
		JOINT Spine
		{
			OFFSET 0.028270 2.035590 -0.193380
			CHANNELS 3 Zrotation Yrotation Xrotation
			JOINT Spine1
			{
				OFFSET 0.056720 2.048850 -0.042750
				CHANNELS 3 Zrotation Yrotation Xrotation
				JOINT Neck
				{
					OFFSET 0.000000 0.000000 0.000000
					CHANNELS 3 Zrotation Yrotation Xrotation
					JOINT Neck1
					{
						OFFSET -0.054170 1.746240 0.172020
						CHANNELS 3 Zrotation Yrotation Xrotation
						JOINT Head
						{
							OFFSET 0.104070 1.761360 -0.123970
							CHANNELS 3 Zrotation Yrotation Xrotation
							End Site
							{
								OFFSET 0.000000 0.000000 0.000000
							}
						}
					}
				}
				JOINT LeftShoulder
				{
					OFFSET 0.000000 0.000000 0.000000
					CHANNELS 3 Zrotation Yrotation Xrotation
					JOINT LeftArm
					{
						OFFSET 3.362410 1.200890 -0.311210
						CHANNELS 3 Zrotation Yrotation Xrotation
						JOINT LeftForeArm
						{
							OFFSET 4.983000 -0.000000 -0.000000
							CHANNELS 3 Zrotation Yrotation Xrotation
							JOINT LeftHand
							{
								OFFSET 3.483560 -0.000000 -0.000000
								CHANNELS 3 Zrotation Yrotation Xrotation
								JOINT LeftFingerBase
								{
									OFFSET 0.000000 0.000000 0.000000
									CHANNELS 3 Zrotation Yrotation Xrotation
									JOINT LeftHandIndex1
									{
										OFFSET 0.715260 -0.000000 -0.000000
										CHANNELS 3 Zrotation Yrotation Xrotation
										End Site
										{
											OFFSET 0.000000 0.000000 0.000000
										}
									}
								}
								JOINT LThumb
								{
									OFFSET 0.000000 0.000000 0.000000
									CHANNELS 3 Zrotation Yrotation Xrotation
									End Site
									{
										OFFSET 0.000000 0.000000 0.000000
									}
								}
							}
						}
					}
				}
				JOINT RightShoulder
				{
					OFFSET 0.000000 0.000000 0.000000
					CHANNELS 3 Zrotation Yrotation Xrotation
					JOINT RightArm
					{
						OFFSET -3.136600 1.374050 -0.404650
						CHANNELS 3 Zrotation Yrotation Xrotation
						JOINT RightForeArm
						{
							OFFSET -5.241900 -0.000000 -0.000000
							CHANNELS 3 Zrotation Yrotation Xrotation
							JOINT RightHand
							{
								OFFSET -3.444170 -0.000000 -0.000000
								CHANNELS 3 Zrotation Yrotation Xrotation
								JOINT RightFingerBase
								{
									OFFSET 0.000000 0.000000 0.000000
									CHANNELS 3 Zrotation Yrotation Xrotation
									JOINT RightHandIndex1
									{
										OFFSET -0.622530 -0.000000 -0.000000
										CHANNELS 3 Zrotation Yrotation Xrotation
										End Site
										{
											OFFSET 0.000000 0.000000 0.000000
										}
									}
								}
								JOINT RThumb
								{
									OFFSET 0.000000 0.000000 0.000000
									CHANNELS 3 Zrotation Yrotation Xrotation
									End Site
									{
										OFFSET 0.000000 0.000000 0.000000
									}
								}
							}
						}
					}
				}
			}
		}
	}
}
MOTION
Frames: 5
Frame Time: 0.008333
19.731081 15.100000 18.414715 -171.909515 25.699700 -170.247433 6.384851 7.616367 -3.139997 -22.857714 -4.034093 -11.708952 -1.695630 13.868525 64.654258 -29.508608 8.802267 29.288731 -10.340617 5.642911 13.905128 11.196064 -9.820986 3.950193 10.361109 17.031757 -49.020314 -2.257673 0.177143 57.668773 36.319973 14.139783 21.903695 46.167761 0.907455 -54.097625 -15.138999 -0.429440 9.179960 6.281217 3.309507 -5.764542 5.883078 0.195805 10.176164 1.697257 4.251355 -16.760659 6.085859 3.492568 15.869430 -17.149093 17.457419 -5.018651 18.058743 2.281985 -0.553811 -87.071831 -27.749392 39.953737 79.007478 -70.494160 -31.895818 -4.764741 -31.950373 6.051267 -0.000000 0.000000 0.000000 0.000000 0.000000 0.000000 -0.000000 0.000000 0.000000 -3.152149 -1.659786 4.369877 71.886683 23.733029 9.506487 9.363086 73.153454 25.482884 -5.692719 12.965948 1.086290 0.000000 -0.000000 0.000000 -0.000000 0.000000 0.000000 -0.000000 -0.000000 0.000000 
19.851952 15.075075 18.200300 -171.584872 25.140635 -170.656021 6.152631 7.050892 -2.822095 -21.545302 -4.553296 -14.278647 -0.417366 15.323910 67.824071 -30.033950 6.445725 28.599183 -9.385506 5.457854 12.363833 11.074405 -8.851020 3.062637 11.108730 16.345452 -46.640256 -4.539623 -2.000396 57.861252 34.811131 15.529284 20.377659 47.028152 1.155850 -55.009652 -15.005347 -0.657759 9.420286 6.342789 3.485583 -5.608485 5.452541 0.476179 10.839646 2.199519 4.244235 -17.041569 6.262474 3.396287 15.541151 -18.924475 17.846524 -4.628774 18.216527 2.908780 -0.916571 -87.110559 -26.589178 37.901012 73.825746 -71.696520 -28.990629 -5.282104 -31.406514 6.102172 -0.000000 -0.000000 -0.000000 0.000000 -0.000000 0.000000 0.000000 -0.000000 -0.000000 -2.549665 -1.490326 5.214807 71.006178 26.751458 8.779819 10.574064 71.885842 25.965249 -2.888032 13.500469 1.512081 0.000000 -0.000000 0.000000 0.000000 0.000000 -0.000000 -0.000000 0.000000 -0.000000 
19.975375 15.046547 17.962312 -171.440446 24.446589 -170.984283 6.220204 6.835089 -2.598007 -20.713575 -5.343324 -16.654720 0.878134 16.646783 70.455722 -29.719966 4.719780 27.747455 -9.751143 9.645738 10.945409 10.351937 -8.505546 2.817277 12.207638 15.920381 -44.851541 -6.428943 -3.591635 57.794763 34.275523 17.193610 19.021233 47.543735 2.023648 -55.954149 -14.752810 -0.878367 9.501482 6.288164 3.481820 -5.409705 6.047625 0.360079 11.719768 1.478195 4.314532 -17.487498 6.259242 3.540325 15.105543 -16.869927 17.496618 -3.928300 17.379212 3.761544 -1.294697 -87.160445 -25.418371 36.410162 69.691380 -72.165585 -27.016467 -4.001883 -30.348574 5.514635 0.000000 0.000000 -0.000000 0.000000 0.000000 0.000000 0.000000 0.000000 -0.000000 -3.365264 -1.211110 5.675680 70.311897 29.724804 8.199890 11.600875 70.771647 26.352014 -1.703753 13.737866 1.702014 0.000000 -0.000000 0.000000 0.000000 -0.000000 -0.000000 0.000000 -0.000000 -0.000000 
20.096697 15.048048 17.727628 -171.597821 23.600651 -171.144021 6.071712 6.348587 -2.543555 -19.733151 -5.825118 -19.264750 2.592435 18.010034 72.404631 -28.722145 3.527871 27.363079 -14.429712 13.920347 17.336645 10.175717 -7.657319 2.464566 12.147643 14.379182 -43.377824 -7.309910 -4.705694 57.351510 34.015624 19.335356 17.465093 47.584925 2.298998 -56.145687 -14.858310 -1.110190 9.768773 6.384747 3.343945 -5.354773 6.313770 0.356527 12.702077 1.080839 4.338417 -18.230313 6.039019 3.637896 14.631279 -16.104174 17.273294 -3.307778 16.664688 4.781552 -1.505670 -87.134004 -24.725160 34.515934 64.831280 -72.911705 -23.411357 -2.995997 -29.939062 5.147497 0.000000 0.000000 0.000000 -0.000000 0.000000 0.000000 0.000000 0.000000 0.000000 -3.661078 -1.107498 6.118928 69.360336 33.190290 7.624309 12.407342 69.786351 26.772414 -0.149596 14.128075 1.970598 0.000000 -0.000000 0.000000 -0.000000 0.000000 -0.000000 -0.000000 0.000000 0.000000 
20.219069 15.074925 17.487387 -171.818190 22.780945 -171.153375 5.459197 5.624161 -2.335935 -18.215278 -6.114544 -22.247606 3.861686 19.121440 74.147837 -27.716324 2.749648 26.877293 -14.473395 11.599360 18.558703 10.905497 -6.671849 2.104573 11.312900 12.060720 -42.365221 -9.372567 -6.169241 56.440815 36.180880 21.526684 18.292617 46.209730 3.099514 -55.380926 -15.252528 -1.419201 9.865094 6.759458 3.063077 -5.327999 5.848603 0.490570 12.383481 1.590751 4.356249 -17.611243 5.746627 3.572617 14.274638 -16.804485 17.154621 -3.197780 16.453915 5.142492 -1.394556 -86.839220 -23.014197 32.174748 59.332019 -73.444662 -20.680268 -7.118790 -29.991660 6.355157 0.000000 0.000000 0.000000 0.000000 -0.000000 -0.000000 0.000000 0.000000 0.000000 -2.964413 0.078854 6.502244 67.899361 35.055363 6.842460 12.668229 68.785092 26.873042 -2.812132 13.520388 1.524642 0.000000 -0.000000 0.000000 -0.000000 0.000000 -0.000000 -0.000000 0.000000 -0.000000 
